<svg width="80" height="80" viewBox="0 0 80 80" fill="none" xmlns="http://www.w3.org/2000/svg">
<g clip-path="url(#clip0_111_6759)">
<path d="M5.02051 44.133C5.02051 45.4273 6.06988 46.1094 7.36426 46.1094C26.9455 46.1094 39.9997 64.9375 39.9997 80V33.8906C39.9997 18.8281 26.9455 0 7.36426 0C6.06988 0 5.02051 1.04937 5.02051 2.34375V44.133Z" fill="#FFEED0"/>
<path d="M74.9792 44.133C74.9792 45.4273 73.9298 46.1094 72.6355 46.1094C53.0542 46.1094 40 64.9375 40 80V33.8906C40 18.8281 53.0542 0 72.6355 0C73.9298 0 74.9792 1.04937 74.9792 2.34375V44.133Z" fill="#FFEED0"/>
<path d="M34.9792 30.125C26.2805 12.552 2.34375 12.552 2.34375 12.552C1.04937 12.552 0 13.6014 0 14.8958V56.3176C0 57.612 1.04937 58.6614 2.34375 58.6614C2.34375 58.6614 26.2805 58.6614 34.9792 76.2343C36.2353 78.6968 40 77.8587 40 75.0943V55.3351C40 48.2183 38.213 36.4647 34.9792 30.125Z" fill="#FFA500"/>
<path d="M45.0208 30.125C53.7195 12.552 77.6562 12.552 77.6562 12.552C78.9506 12.552 80 13.6014 80 14.8958V56.3176C80 57.612 78.9506 58.6614 77.6562 58.6614C77.6562 58.6614 53.7195 58.6614 45.0208 76.2343C43.7647 78.6968 40 77.8587 40 75.0943V55.3351C40 48.2183 41.787 36.4647 45.0208 30.125Z" fill="#FFA500"/>
<path d="M45.0212 30.125C42.5107 35.1458 37.49 35.1458 34.9795 30.125V76.2344C37.49 81.2552 42.5107 81.2552 45.0212 76.2344V30.125Z" fill="#FFA500"/>
<path d="M40 33.8906V80C41.8828 80 43.7656 78.7448 45.0208 76.2344V30.125C43.7656 32.6353 41.8828 33.8906 40 33.8906Z" fill="#FFA500"/>
<path d="M53.0919 36.5249C52.3914 35.4364 52.7059 33.9861 53.7944 33.2856C57.5753 30.8524 62.0403 29.0044 67.0656 27.7928C68.3239 27.4892 69.59 28.2636 69.8934 29.5219C70.1969 30.7803 69.4227 32.0463 68.1644 32.3497C63.6508 33.4378 59.6697 35.0789 56.3314 37.2274C54.9386 38.1233 53.5723 37.2714 53.0919 36.5249Z" fill="#151717"/>
<path d="M53.0919 50.332C52.3914 49.2435 52.7059 47.7932 53.7944 47.0928C57.5753 44.6595 62.0403 42.8115 67.0656 41.5999C68.3239 41.2964 69.59 42.0707 69.8934 43.329C70.1969 44.5874 69.4227 45.8534 68.1644 46.1568C63.6508 47.2449 59.6697 48.886 56.3314 51.0345C54.9386 51.9306 53.5723 51.0787 53.0919 50.332Z" fill="#151717"/>
</g>
<defs>
<clipPath id="clip0_111_6759">
<rect width="80" height="80" fill="white"/>
</clipPath>
</defs>
</svg>
