<svg width="53" height="36" viewBox="0 0 53 36" fill="none" xmlns="http://www.w3.org/2000/svg">
<path d="M52.0861 35.3621H0.913834C0.409196 35.3621 0 34.9529 0 34.4482V1.55176C0 1.04712 0.409196 0.637926 0.913834 0.637926H52.0862C52.5908 0.637926 53 1.04712 53 1.55176V34.4482C52.9999 34.953 52.5907 35.3621 52.0861 35.3621Z" fill="#41479B"/>
<path d="M25.5861 0.638029H23.9988L15.5344 6.18376V0.638029H10.9654V6.18376L2.50093 0.638029H0.913834C0.409196 0.638029 0 1.04712 0 1.55176V2.27658L7.26212 7.03445H0V11.6034H7.26212L0 16.3614V17.0862C0 17.5909 0.409196 18.0001 0.913834 18.0001H2.50114L10.9656 12.4543V18.0001H15.5346V12.4543L23.9989 18.0001H25.5862C26.0909 18.0001 26.5001 17.5909 26.5001 17.0862V16.3614L19.2379 11.6035H26.4999V7.03456H19.2378L26.4999 2.27668V1.55186C26.4999 1.04712 26.0908 0.638029 25.5861 0.638029Z" fill="#F5F5F5"/>
<path d="M26.4999 7.94839H14.6206V0.638029H11.8793V7.94839H0V10.6897H11.8793V18.0001H14.6206V10.6897H26.4999V7.94839Z" fill="#FF4B55"/>
<path d="M10.0517 7.03455L0.435489 0.792467C0.179599 0.954365 0 1.22651 0 1.55175V1.59916L8.37326 7.03455H10.0517Z" fill="#FF4B55"/>
<path d="M17.2128 7.03455L26.3609 1.09629C26.2019 0.82725 25.9214 0.638023 25.5861 0.638023H25.3885L15.5344 7.03455H17.2128Z" fill="#FF4B55"/>
<path d="M9.26168 11.6035L0.131104 17.5304C0.28855 17.806 0.573425 18 0.913577 18H1.08593L10.9402 11.6035H9.26168Z" fill="#FF4B55"/>
<path d="M26.4856 17.1579L17.9284 11.6035H16.25L25.9674 17.9112C26.2585 17.7761 26.4582 17.493 26.4856 17.1579Z" fill="#FF4B55"/>
<path d="M13.5265 22.9823L14.2162 25.2593L16.4266 24.3789C16.6152 24.3037 16.7866 24.5188 16.6715 24.6859L15.3212 26.6448L17.3876 27.824C17.5639 27.9246 17.5027 28.1927 17.3003 28.2069L14.9268 28.3726L15.2933 30.7235C15.3246 30.9241 15.0767 31.0434 14.9395 30.8938L13.33 29.1415L11.7206 30.8938C11.5833 31.0433 11.3355 30.924 11.3668 30.7235L11.7333 28.3726L9.3598 28.2069C9.15732 28.1927 9.09614 27.9246 9.27243 27.824L11.3388 26.6448L9.98855 24.6859C9.87344 24.5188 10.0449 24.3037 10.2335 24.3789L12.4438 25.2593L13.1336 22.9823C13.1927 22.788 13.4677 22.788 13.5265 22.9823Z" fill="#F5F5F5"/>
<path d="M40.7106 6.79234L41.0475 7.90461L42.1272 7.47461C42.2192 7.43797 42.3031 7.54293 42.2468 7.62461L41.5873 8.5816L42.5966 9.15767C42.6828 9.20673 42.6528 9.33779 42.5539 9.34462L41.3945 9.42557L41.5735 10.5739C41.5888 10.6719 41.4677 10.7302 41.4006 10.6571L40.6144 9.80112L39.8282 10.6571C39.7611 10.7301 39.6401 10.6718 39.6554 10.5739L39.8343 9.42557L38.675 9.34462C38.576 9.33779 38.5461 9.20673 38.6322 9.15767L39.6416 8.5816L38.9821 7.62461C38.9258 7.54293 39.0096 7.43797 39.1016 7.47461L40.1813 7.90461L40.5183 6.79234C40.5474 6.69742 40.6819 6.69742 40.7106 6.79234Z" fill="#F5F5F5"/>
<path d="M33.1976 15.3299L33.5346 16.4422L34.6143 16.0121C34.7063 15.9755 34.7901 16.0805 34.7338 16.1621L34.0743 17.1191L35.0837 17.6952C35.1698 17.7443 35.1399 17.8753 35.0409 17.8822L33.8816 17.9631L34.0606 19.1114C34.0759 19.2094 33.9548 19.2677 33.8877 19.1946L33.1015 18.3387L32.3153 19.1946C32.2482 19.2676 32.1272 19.2093 32.1424 19.1114L32.3214 17.9631L31.162 17.8822C31.0631 17.8753 31.0331 17.7443 31.1193 17.6952L32.1286 17.1191L31.4691 16.1621C31.4128 16.0805 31.4967 15.9755 31.5887 16.0121L32.6684 16.4422L33.0053 15.3299C33.0345 15.235 33.1689 15.235 33.1976 15.3299Z" fill="#F5F5F5"/>
<path d="M47.8182 11.6746L48.1551 12.7869L49.2348 12.3569C49.3268 12.3203 49.4106 12.4252 49.3543 12.5069L48.6948 13.4639L49.7042 14.04C49.7903 14.089 49.7604 14.2201 49.6615 14.2269L48.5021 14.3079L48.6811 15.4562C48.6964 15.5542 48.5753 15.6125 48.5083 15.5394L47.7221 14.6834L46.9359 15.5394C46.8688 15.6124 46.7478 15.5541 46.763 15.4562L46.942 14.3079L45.7826 14.2269C45.6837 14.2201 45.6537 14.089 45.7399 14.04L46.7493 13.4639L46.0898 12.5069C46.0334 12.4252 46.1173 12.3203 46.2093 12.3569L47.289 12.7869L47.6259 11.6746C47.655 11.5797 47.7894 11.5797 47.8182 11.6746Z" fill="#F5F5F5"/>
<path d="M40.7106 26.2954L41.0475 27.4076L42.1272 26.9775C42.2192 26.9409 42.3031 27.0459 42.2468 27.1275L41.5873 28.0845L42.5966 28.6606C42.6828 28.7097 42.6528 28.8407 42.5539 28.8475L41.3945 28.9285L41.5735 30.0768C41.5888 30.1748 41.4677 30.2331 41.4006 30.16L40.6144 29.304L39.8282 30.16C39.7611 30.233 39.6401 30.1747 39.6554 30.0768L39.8343 28.9285L38.675 28.8475C38.576 28.8407 38.5461 28.7097 38.6322 28.6606L39.6416 28.0845L38.9821 27.1275C38.9258 27.0459 39.0096 26.9409 39.1016 26.9775L40.1813 27.4076L40.5183 26.2954C40.5474 26.2004 40.6819 26.2004 40.7106 26.2954Z" fill="#F5F5F5"/>
<path d="M43.3173 17.3286L43.0468 18.1397L42.1919 18.1463C42.0813 18.1473 42.0353 18.2885 42.1244 18.3542L42.8122 18.8621L42.5542 19.6773C42.5209 19.7829 42.6411 19.8702 42.731 19.8058L43.4266 19.3086L44.1223 19.8058C44.2123 19.8702 44.3324 19.7828 44.2991 19.6773L44.0411 18.8621L44.7289 18.3542C44.818 18.2883 44.772 18.1473 44.6614 18.1463L43.8064 18.1397L43.536 17.3286C43.5009 17.2235 43.3523 17.2235 43.3173 17.3286Z" fill="#F5F5F5"/>
</svg>
