<svg width="80" height="80" viewBox="0 0 80 80" fill="none" xmlns="http://www.w3.org/2000/svg">
<g clip-path="url(#clip0_111_6743)">
<path d="M77.1807 66.7657C77.1343 66.7657 53.5003 76.3903 49.375 78.0309C48.9996 78.1719 48.8122 78.2653 48.7658 78.2653C43.5156 80.656 36.6253 80.6091 31.0003 77.7502L9.53125 69.2028V43.8439L22.9376 41.875C25.3284 41.2188 27.6251 41.4532 29.6875 42.4847C30.1562 42.7191 48.0157 51.6717 49.1406 52.2344C49.2346 52.2814 49.328 52.3284 49.375 52.3754C51.4843 53.5003 52.3284 56.2188 51.203 58.5156C50.7812 59.3597 50.1251 60.0628 49.375 60.4846C48.0627 61.2347 46.4221 61.3281 44.9218 60.5786C44.4537 60.3442 36.203 56.2658 36.203 56.2658C33.2501 54.8126 29.6875 55.6097 27.6251 58.1878C26.781 59.2187 26.969 60.6719 27.9999 61.4691C28.985 62.2656 30.4846 62.1252 31.2811 61.0937C31.9842 60.2502 33.1561 59.9688 34.1876 60.4376L42.8125 64.7967C44.1717 65.4528 45.625 65.7812 47.0312 65.7812C47.3126 65.7812 48.1561 65.5938 49.375 65.266C55.9845 63.5314 73.7591 58.0938 73.7591 58.0938C76.1498 57.2973 78.634 58.5156 79.5715 60.6719C80.603 62.4066 79.7595 65.6402 77.1807 66.7657Z" fill="#FFCEBF"/>
<path d="M77.1808 66.7657C77.1344 66.7657 53.5004 76.3903 49.375 78.031V65.2655C55.9845 63.5315 73.7591 58.0938 73.7591 58.0938C76.1499 57.2967 78.634 58.5156 79.5715 60.672C80.603 62.4066 79.7595 65.6402 77.1808 66.7657Z" fill="#FFBFAB"/>
<path d="M49.375 0C37.7502 0 28.2812 9.62523 28.2812 21.25C28.2812 32.8747 37.7502 42.3437 49.375 42.3437C60.9997 42.3437 70.4687 32.8747 70.4687 21.25C70.4687 9.62523 60.9997 0 49.375 0Z" fill="#22A7F2"/>
<path d="M49.375 42.3437V0C60.9997 0 70.4687 9.62523 70.4687 21.25C70.4687 32.8747 60.9997 42.3437 49.375 42.3437Z" fill="#22A7F2"/>
<path d="M49.375 4.6875C40.3284 4.6875 32.9688 12.2034 32.9688 21.25C32.9688 30.2966 40.3284 37.6562 49.375 37.6562C58.4216 37.6562 65.7812 30.2966 65.7812 21.25C65.7812 12.2034 58.4216 4.6875 49.375 4.6875Z" fill="#22A7F2"/>
<path d="M65.7812 21.25C65.7812 30.2966 58.4216 37.6562 49.375 37.6562V4.6875C58.4216 4.6875 65.7812 12.2034 65.7812 21.25Z" fill="#22A7F2"/>
<path d="M56.4062 25.9375C56.4062 28.9844 54.4379 31.5625 51.7187 32.547V35.3125C51.7187 36.6253 50.6879 37.6562 49.375 37.6562C48.0621 37.6562 47.0312 36.6253 47.0312 35.3125V32.547C44.3121 31.5625 42.3438 28.9844 42.3438 25.9375C42.3438 24.6246 43.3746 23.5937 44.6875 23.5937C46.0004 23.5937 47.0312 24.6246 47.0312 25.9375C47.0312 27.2503 48.0621 28.2812 49.375 28.2812C50.6879 28.2812 51.7187 27.2503 51.7187 25.9375C51.7187 24.6246 50.6879 23.5937 49.375 23.5937C45.484 23.5937 42.3438 20.4535 42.3438 16.5625C42.3438 13.5156 44.3121 10.9375 47.0312 9.95361V7.03125C47.0312 5.71838 48.0621 4.6875 49.375 4.6875C50.6879 4.6875 51.7187 5.71838 51.7187 7.03125V9.95361C54.4379 10.9375 56.4062 13.5156 56.4062 16.5625C56.4062 17.8754 55.3754 18.9062 54.0625 18.9062C52.7496 18.9062 51.7187 17.8754 51.7187 16.5625C51.7187 15.2496 50.6879 14.2187 49.375 14.2187C48.0621 14.2187 47.0312 15.2496 47.0312 16.5625C47.0312 17.8754 48.0621 18.9062 49.375 18.9062C53.266 18.9062 56.4062 22.0465 56.4062 25.9375Z" fill="white"/>
<path d="M11.875 75.3125H2.34375C1.04919 75.3125 0 74.2633 0 72.9687V40C0 38.7054 1.04919 37.6562 2.34375 37.6562H7.18749C11.0705 37.6562 14.2187 40.8044 14.2187 44.6875V72.9687C14.2187 74.2633 13.1695 75.3125 11.875 75.3125Z" fill="#22A7F2"/>
<path d="M56.4062 25.9375C56.4062 28.9844 54.4379 31.5625 51.7187 32.547V35.3125C51.7187 36.6253 50.6879 37.6562 49.375 37.6562V28.2812C50.6879 28.2812 51.7187 27.2504 51.7187 25.9375C51.7187 24.6246 50.6879 23.5937 49.375 23.5937V18.9062C53.266 18.9062 56.4062 22.0465 56.4062 25.9375Z" fill="white"/>
<path d="M49.375 14.2187V4.6875C50.6879 4.6875 51.7187 5.71838 51.7187 7.03125V9.95361C54.4379 10.9375 56.4062 13.5156 56.4062 16.5625C56.4062 17.8754 55.3754 18.9062 54.0625 18.9062C52.7496 18.9062 51.7187 17.8754 51.7187 16.5625C51.7187 15.2496 50.6879 14.2187 49.375 14.2187Z" fill="white"/>
</g>
<defs>
<clipPath id="clip0_111_6743">
<rect width="80" height="79.9999" fill="white"/>
</clipPath>
</defs>
</svg>
