<svg width="80" height="80" viewBox="0 0 80 80" fill="none" xmlns="http://www.w3.org/2000/svg">
<g clip-path="url(#clip0_111_6714)">
<path d="M2.06516 77.9365C0.733281 76.6048 0 74.8341 0 72.9509C0 71.0676 0.733281 69.297 2.06516 67.9652L53.6059 16.4245C54.5211 15.5092 56.0052 15.5093 56.9205 16.4245L63.5773 23.0812C64.0169 23.5207 64.2639 24.1168 64.2639 24.7384C64.2639 25.3599 64.017 25.956 63.5773 26.3956L12.0364 77.9365C10.6619 79.311 8.85625 79.9982 7.05078 79.9982C5.24531 79.9982 3.43969 79.311 2.06516 77.9365Z" fill="#464B52"/>
<path d="M63.5776 23.0812C64.0171 23.5208 64.2642 24.1169 64.2642 24.7384C64.2642 25.36 64.0173 25.9561 63.5776 26.3956L12.0367 77.9366C10.6621 79.3111 8.85652 79.9983 7.05105 79.9983C5.24559 79.9983 3.43996 79.3111 2.06543 77.9366L60.2492 19.7528L63.5776 23.0812Z" fill="#292B2F"/>
<path d="M49.4141 61.1736C66.3062 61.1736 80 47.4798 80 30.5876C80 13.6955 66.3062 0.00170898 49.4141 0.00170898C32.5219 0.00170898 18.8281 13.6955 18.8281 30.5876C18.8281 47.4798 32.5219 61.1736 49.4141 61.1736Z" fill="#31AB81"/>
<path d="M71.0313 8.97009C76.5698 14.5085 79.9999 22.1549 79.9999 30.5876C79.9999 47.4528 66.2791 61.1735 49.414 61.1735C40.9815 61.1735 33.3349 57.7434 27.7966 52.2049L71.0313 8.97009Z" fill="#31AB81"/>
<path d="M49.4141 51.7595C61.107 51.7595 70.5859 42.2806 70.5859 30.5876C70.5859 18.8947 61.107 9.41577 49.4141 9.41577C37.7212 9.41577 28.2422 18.8947 28.2422 30.5876C28.2422 42.2806 37.7212 51.7595 49.4141 51.7595Z" fill="#E1FAFF"/>
<path d="M49.4139 51.7595C43.5769 51.7595 38.2839 49.3852 34.4502 45.5514L64.3777 15.6239C68.2114 19.4577 70.5858 24.7506 70.5858 30.5877C70.5858 42.2619 61.0882 51.7595 49.4139 51.7595Z" fill="#E1FAFF"/>
</g>
<defs>
<clipPath id="clip0_111_6714">
<rect width="80" height="80" fill="white"/>
</clipPath>
</defs>
</svg>
