<svg width="80" height="80" viewBox="0 0 80 80" fill="none" xmlns="http://www.w3.org/2000/svg">
<g clip-path="url(#clip0_111_6727)">
<path d="M56.2812 3.42225L55.7655 4.40674C53.3277 9.42261 52.0155 14.9689 51.9215 20.4535L41.703 27.2034L28.3906 20.4535C28.2966 14.9695 26.9843 9.42261 24.4996 4.35975L24.0308 3.42225C23.5627 2.53174 23.7031 1.40686 24.4062 0.703739C25.1557 -0.0463834 26.2342 -0.186764 27.1247 0.234989L35.0001 4.17237L38.5157 0.703739C38.9375 0.234989 39.5466 0.000613712 40.1563 0.000613712C40.7655 0.000613712 41.3746 0.234989 41.7963 0.703739L45.312 4.17237L53.1873 0.234989C54.0778 -0.186764 55.2027 -0.0463834 55.9058 0.703739C56.609 1.40686 56.7494 2.53174 56.2812 3.42225Z" fill="#FF56D1"/>
<path d="M56.2808 3.42225L55.765 4.40674C53.3273 9.42261 52.015 14.9689 51.921 20.4535L41.7025 27.2034L40.1553 26.4069V0.000613712C40.765 0.000613712 41.3741 0.234989 41.7959 0.703739L45.3115 4.17237L53.1869 0.234989C54.0768 -0.186764 55.2023 -0.0463834 55.9054 0.703739C56.6085 1.40686 56.7489 2.53174 56.2808 3.42225Z" fill="#FF56D1"/>
<path d="M70.6244 54.0625C70.6244 69.7186 58.6713 80 40.1563 80C21.6406 80 9.6875 69.7186 9.6875 54.0625C9.6875 46.9849 12.1722 40.094 16.6248 34.6564L28.3905 20.4535H51.9214L63.6872 34.6564C66.734 38.4064 68.8904 42.8125 69.8743 47.547C70.39 49.6564 70.6244 51.8591 70.6244 54.0625Z" fill="#FF56D1"/>
<path d="M70.6244 54.0625C70.6244 69.7186 58.6713 80 40.1562 80V20.4535H51.9214L63.6871 34.6564C66.734 38.4064 68.8904 42.8125 69.8743 47.547C70.39 49.6564 70.6244 51.8591 70.6244 54.0625Z" fill="#FF56D1"/>
<path d="M13.2025 23.9087C12.0812 23.2611 10.6481 23.6456 10.0005 24.7662C9.35357 25.8874 9.73748 27.3205 10.8587 27.9681C11.9793 28.6151 13.413 28.2312 14.06 27.11C14.7076 25.9894 14.3231 24.5556 13.2025 23.9087Z" fill="#FFD400"/>
<path d="M47.1404 54.7656C47.1404 57.8125 45.2184 60.3436 42.4993 61.3281V63.4375C42.4993 64.7498 41.4684 65.7813 40.1561 65.7813C38.8433 65.7813 37.8124 64.7498 37.8124 63.4375V61.3751C35.0933 60.3906 33.0779 57.8125 33.0779 54.7656C33.0779 53.4534 34.1558 52.4219 35.4216 52.4219C36.7339 52.4219 37.7654 53.4534 37.7654 54.7656C37.7654 56.0315 38.8433 57.1094 40.1091 57.1094H40.1561C41.4684 57.063 42.4529 56.0315 42.4529 54.7656C42.4529 53.4534 41.4684 52.4689 40.1561 52.4219H40.1091C36.2651 52.4219 33.0779 49.2346 33.0779 45.3906C33.0779 42.2974 35.0933 39.7192 37.8124 38.7817V35.3131C37.8124 34.0002 38.8433 32.9694 40.1561 32.9694C41.4684 32.9694 42.4993 34.0002 42.4993 35.3131V38.7817C45.2184 39.7662 47.1404 42.3438 47.1404 45.3906C47.1404 46.6565 46.1089 47.7344 44.7966 47.7344C43.5308 47.7344 42.4529 46.6565 42.4529 45.3906C42.4529 44.0784 41.4684 43.0939 40.1561 43.0469H40.1091C38.8433 43.0469 37.7654 44.0784 37.7654 45.3906C37.7654 46.6565 38.8433 47.7344 40.1091 47.7344H40.1561C44.0465 47.7814 47.1404 50.8753 47.1404 54.7656Z" fill="white"/>
<path d="M72.9678 18.9069H70.624V16.5631C70.624 15.2673 69.5761 14.2194 68.2803 14.2194C66.9851 14.2194 65.9365 15.2673 65.9365 16.5631V18.9069H63.5928C62.2976 18.9069 61.249 19.9548 61.249 21.2506C61.249 22.5458 62.2976 23.5944 63.5928 23.5944H65.9365V25.9381C65.9365 27.2333 66.9851 28.2819 68.2803 28.2819C69.5761 28.2819 70.624 27.2333 70.624 25.9381V23.5944H72.9678C74.2636 23.5944 75.3115 22.5458 75.3115 21.2506C75.3115 19.9548 74.2636 18.9069 72.9678 18.9069Z" fill="#FDBF00"/>
<path d="M16.7188 4.68811H14.375V2.34436C14.375 1.04858 13.3264 0.000610352 12.0313 0.000610352C10.7355 0.000610352 9.6875 1.04858 9.6875 2.34436V4.68811H7.34375C6.04797 4.68811 5 5.73609 5 7.03186C5 8.32703 6.04797 9.37561 7.34375 9.37561H9.6875V11.7194C9.6875 13.0145 10.7355 14.0631 12.0313 14.0631C13.3264 14.0631 14.375 13.0145 14.375 11.7194V9.37561H16.7188C18.0139 9.37561 19.0625 8.32703 19.0625 7.03186C19.0625 5.73609 18.0139 4.68811 16.7188 4.68811Z" fill="#FFD400"/>
<path d="M47.1405 54.7656C47.1405 57.8125 45.2185 60.3436 42.4994 61.3281V63.4375C42.4994 64.7498 41.4685 65.7813 40.1562 65.7813V57.1094C41.4685 57.063 42.453 56.0315 42.453 54.7656C42.453 53.4534 41.4685 52.4689 40.1562 52.4219V47.7344C44.0466 47.7814 47.1405 50.8752 47.1405 54.7656Z" fill="white"/>
<path d="M47.1405 45.3906C47.1405 46.6565 46.109 47.7344 44.7968 47.7344C43.5309 47.7344 42.453 46.6565 42.453 45.3906C42.453 44.0784 41.4685 43.0939 40.1562 43.0469V32.9694C41.4685 32.9694 42.4994 34.0002 42.4994 35.3131V38.7817C45.2185 39.7656 47.1405 42.3438 47.1405 45.3906Z" fill="white"/>
</g>
<defs>
<clipPath id="clip0_111_6727">
<rect width="80" height="80" fill="white"/>
</clipPath>
</defs>
</svg>
